<svg width="48" height="48" fill="none" xmlns="http://www.w3.org/2000/svg"><path fill-rule="evenodd" clip-rule="evenodd" d="M31.768 31.82l-.638.273a3.482 3.482 0 00-2.06 2.602l-.084.488.055.495a3.476 3.476 0 006.921-.155l.033-.499-.106-.483a3.477 3.477 0 00-3.394-2.726h-.025l-.702.005zm5.555 3.793a4.839 4.839 0 01-9.638.215h-8.66a4.84 4.84 0 01-9.62 0H4V7.87h27.957v6.452h5.591L44 24.968v10.645h-6.677zm4.67-11.327H32.46v-8.6h4.32l5.212 8.6zM10.706 35.183l.054.495a3.476 3.476 0 006.908 0l.055-.495-.084-.487a3.476 3.476 0 00-6.85 0l-.083.487zm8.276-.719h8.743a4.846 4.846 0 012.867-3.625V9.235H5.363v25.23h4.084a4.84 4.84 0 019.537 0zM32.46 25.65h10.176v8.6h-5.415a4.84 4.84 0 00-4.692-3.798h-.069V25.65z" fill="#fff"/></svg>