<svg width="48" height="48" fill="none" xmlns="http://www.w3.org/2000/svg"><path fill-rule="evenodd" clip-rule="evenodd" d="M29.433 6.477H25.38v10.177h4.054V6.477zM25.38 5.013H10.552a6.552 6.552 0 000 13.104h.992v13.145l-2.2 2.2-.213.214v7.158l.214.214 1.724 1.724.214.215H23.27l.214-.215 1.724-1.724.215-.214v-5.45l-.234-.217-3.904-3.625V24.02h3.101v-5.904h6.51v-2.069h5.518V12.6H44v-1.464h-7.586V7.772h-5.517V5.013h-5.518zm-5.433 27.284H12.58l-1.985 1.985v5.946l1.295 1.295h10.774l1.295-1.295v-4.206l-4.012-3.725zm-9.394-15.643h13.364V6.477H10.552a5.088 5.088 0 000 10.177zm12.372 1.463h-9.916v12.716h6.812v-8.275h3.104v-4.441zM34.95 9.236h-3.28v5.349h3.28v-5.35z" fill="#fff"/></svg>